<svg id="Capa_1" enable-background="new 0 0 512 512" height="512" viewBox="0 0 512 512" width="512" xmlns="http://www.w3.org/2000/svg"><g><g><g><path d="m410.572 504.5h-309.144c-23.737 0-42.364-20.356-40.263-44l27.433-308.73c1.853-20.856 19.325-36.844 40.263-36.844h254.279c20.938 0 38.41 15.989 40.263 36.844l27.433 308.73c2.101 23.644-16.527 44-40.264 44z" fill="#e278b1"/><path d="m450.836 460.5-27.433-308.73c-1.853-20.856-19.325-36.844-40.263-36.844h-54.995c20.938 0 38.41 15.989 40.263 36.844l27.432 308.73c2.101 23.644-16.527 43.999-40.263 43.999h54.995c23.737.001 42.365-20.355 40.264-43.999z" fill="#dd5ca2"/><path d="m410.572 504.5h-309.144c-23.737 0-42.364-20.356-40.263-44h389.671c2.101 23.644-16.527 44-40.264 44z" fill="#db578e"/><path d="m450.836 460.5h-54.996c2.101 23.644-16.527 43.999-40.263 43.999h54.995c23.737.001 42.365-20.355 40.264-43.999z" fill="#da4093"/></g></g><g><path d="m458.309 459.836-22.378-251.842c-.367-4.126-4.005-7.163-8.135-6.807-4.126.367-7.173 4.009-6.807 8.135l21.653 243.678h-303.052c-4.143 0-7.5 3.357-7.5 7.5s3.357 7.5 7.5 7.5h303.69c-1.826 15.714-15.252 29-32.705 29h-309.145c-17.455 0-30.88-13.288-32.705-29h35.806c4.143 0 7.5-3.357 7.5-7.5s-3.357-7.5-7.5-7.5h-35.169l26.708-300.566c1.521-17.107 15.618-30.008 32.793-30.008h34.646v48.53c0 4.143 3.357 7.5 7.5 7.5s7.5-3.357 7.5-7.5v-48.53h154.986v48.701c0 4.143 3.357 7.5 7.5 7.5s7.5-3.357 7.5-7.5v-48.701h34.646c17.175 0 31.272 12.9 32.793 30.008l1.906 21.458c.367 4.125 4.013 7.17 8.135 6.807 4.126-.366 7.173-4.009 6.807-8.135l-1.906-21.458c-2.213-24.901-22.734-43.68-47.734-43.68h-34.646v-14.933c-.001-51.001-41.493-92.493-92.494-92.493s-92.493 41.492-92.493 92.493v14.933h-34.646c-25 0-45.521 18.778-47.734 43.68l-27.433 308.73c-2.488 28.009 19.622 52.164 47.734 52.164h309.145c13.413 0 26.299-5.675 35.354-15.57s13.566-23.234 12.38-36.594zm-279.8-367.343c0-42.729 34.764-77.493 77.493-77.493s77.493 34.764 77.493 77.493v14.933h-154.986z"/></g></g></svg>