<svg height="512pt" viewBox="0 -8 512.00279 512" width="512pt" xmlns="http://www.w3.org/2000/svg"><path d="m146.183594 418.144531c-.0625 0-.125 0-.1875 0l-95.625-2.421875c-.167969-.003906-.335938-.015625-.507813-.03125-14.21875-1.328125-28.839843-3.097656-43.460937-5.261718-4.097656-.605469-6.925782-4.421876-6.3203128-8.519532.6054688-4.097656 4.4179688-6.9375 8.5195308-6.320312 14.269532 2.113281 28.535157 3.84375 42.40625 5.144531l95.09375 2.40625c21.980469-1.0625 43.613282-3.339844 64.300782-6.769531l92.402344-24.839844c23.453124-9.007812 45.929687-19.996094 66.8125-32.660156l74.734374-58.835938c37.488282-37.980468 53.21875-70.574218 53.375-70.902344 1.777344-3.734374 6.246094-5.332031 9.988282-3.558593 3.738281 1.773437 5.335937 6.238281 3.566406 9.980469-.671875 1.421874-16.925781 35.277343-56.589844 75.359374-.21875.21875-.449218.425782-.691406.617188l-75.460938 59.40625c-.238281.1875-.484374.359375-.742187.515625-21.871094 13.296875-45.417969 24.8125-69.984375 34.222656-.242188.09375-.488281.171875-.738281.242188l-93.132813 25.035156c-.234375.0625-.472656.113281-.714844.152344-21.460937 3.574219-43.894531 5.941406-66.683593 7.03125-.121094.007812-.238281.007812-.359375.007812zm0 0" fill="#d8d7da"/><path d="m361.027344 137.40625c-16.632813 0-33.03125-.492188-48.925782-1.476562-.179687-.007813-.355468-.027344-.535156-.050782l-96.898437-12.992187c-.195313-.027344-.386719-.0625-.578125-.101563-22.710938-4.871094-44.699219-11.023437-65.347656-18.28125-.265626-.09375-.523438-.203125-.777344-.324218l-88.128906-42.636719c-.285157-.136719-.558594-.289063-.820313-.460938-39.632813-25.742187-56.785156-48.117187-57.496094-49.054687-2.5-3.304688-1.847656-8.007813 1.457031-10.507813 3.300782-2.496093 7.996094-1.84375 10.496094 1.449219.160156.207031 16.394532 21.21875 53.320313 45.277344l87.320312 42.246094c19.855469 6.960937 40.992188 12.867187 62.839844 17.5625l96.339844 12.921874c20.320312 1.242188 41.480469 1.675782 62.90625 1.289063l96.464843-6.816406c10.078126-1.203125 20.417969-2.589844 30.734376-4.117188 4.101562-.609375 7.914062 2.222657 8.519531 6.316407.605469 4.097656-2.222657 7.914062-6.320313 8.519531-10.519531 1.558593-21.0625 2.972656-31.335937 4.199219-.121094.011718-.242188.023437-.359375.03125l-96.84375 6.84375c-.128906.007812-.257813.015624-.390625.019531-5.230469.09375-10.445313.144531-15.640625.144531zm0 0" fill="#d8d7da"/><path d="m212.515625 106.09375 33.375 99.210938c1.964844 5.84375 9.773437 6.914062 13.238281 1.8125l58.8125-86.585938c3.109375-4.578125.324219-10.828125-5.160156-11.578125l-92.183594-12.625c-5.484375-.75-9.84375 4.523437-8.082031 9.765625zm0 0" fill="#bdebff"/><path d="m238.40625 98.769531-17.808594-2.4375c-5.484375-.753906-9.84375 4.519531-8.082031 9.765625l33.375 99.207032c1.964844 5.84375 9.773437 6.914062 13.238281 1.8125l10.515625-15.484376zm0 0" fill="#92d8ff"/><path d="m371.480469 121.433594 54.28125 89.5c3.199219 5.273437 11.046875 4.605468 13.3125-1.128906l38.433593-97.359376c2.03125-5.148437-2.054687-10.636718-7.566406-10.167968l-92.714844 7.859375c-5.511718.46875-8.613281 6.566406-5.746093 11.296875zm0 0" fill="#c17f8c"/><path d="m395.136719 108.621094-17.910157 1.515625c-5.511718.46875-8.613281 6.566406-5.746093 11.296875l54.28125 89.5c3.199219 5.273437 11.046875 4.605468 13.3125-1.128906l6.875-17.410157zm0 0" fill="#b25f6f"/><path d="m205.152344 396.34375 70.945312 76.964844c4.179688 4.535156 11.742188 2.324218 12.824219-3.746094l18.371094-103.046875c.972656-5.449219-4.117188-10.019531-9.429688-8.46875l-89.316406 26.085937c-5.3125 1.550782-7.144531 8.144532-3.394531 12.210938zm0 0" fill="#ffde55"/><path d="m225.800781 379.09375-17.253906 5.039062c-5.3125 1.550782-7.144531 8.144532-3.390625 12.210938l70.941406 76.964844c4.179688 4.535156 11.742188 2.324218 12.824219-3.746094l3.285156-18.429688zm0 0" fill="#ffcd00"/><path d="m362.167969 339.078125 93.300781 47.449219c5.496094 2.792968 11.816406-1.910156 10.714844-7.976563l-18.652344-102.996093c-.988281-5.445313-7.351562-7.957032-11.789062-4.652344l-74.648438 55.546875c-4.4375 3.304687-3.859375 10.121093 1.074219 12.628906zm0 0" fill="#f46262"/><path d="m375.515625 315.71875-14.421875 10.730469c-4.4375 3.304687-3.859375 10.121093 1.074219 12.628906l93.300781 47.449219c5.496094 2.796875 11.816406-1.910156 10.714844-7.976563l-3.335938-18.417969zm0 0" fill="#d65b5b"/><path d="m45.019531 394.8125 39.976563 96.738281c2.355468 5.695313 10.214844 6.238281 13.328125.917969l52.851562-90.351562c2.792969-4.777344-.40625-10.828126-5.925781-11.207032l-92.828125-6.386718c-5.519531-.378907-9.515625 5.175781-7.402344 10.289062zm0 0" fill="#7ec66a"/><path d="m70.355469 385.757812-17.933594-1.234374c-5.519531-.378907-9.515625 5.175781-7.402344 10.289062l39.976563 96.734375c2.355468 5.699219 10.214844 6.238281 13.328125.917969l9.453125-16.15625zm0 0" fill="#5aaa4f"/><path d="m63.105469 45.730469 2.335937 104.648437c.136719 6.164063 7.269532 9.507813 12.09375 5.667969l81.921875-65.160156c4.328125-3.445313 3.53125-10.238281-1.480469-12.585938l-84.25-39.488281c-5.011718-2.347656-10.742187 1.386719-10.621093 6.917969zm0 0" fill="#ff7956"/><path d="m90.003906 46.441406-16.277344-7.628906c-5.011718-2.347656-10.742187 1.386719-10.621093 6.917969l2.335937 104.644531c.136719 6.164062 7.269532 9.507812 12.09375 5.671875l14.652344-11.652344zm0 0" fill="#ff6243"/><path d="m411.898438 452.40625c0 13.808594-11.195313 25-25 25-13.808594 0-25-11.191406-25-25s11.191406-25 25-25c13.804687 0 25 11.191406 25 25zm0 0" fill="#bdebff"/><path d="m381.898438 452.40625c0-10.25 6.171874-19.054688 15-22.914062-3.0625-1.339844-6.445313-2.085938-10-2.085938-13.808594 0-25 11.191406-25 25s11.191406 25 25 25c3.554687 0 6.9375-.75 10-2.085938-8.828126-3.859374-15-12.664062-15-22.914062zm0 0" fill="#92d8ff"/><path d="m383.089844 38.097656c0 13.808594-11.191406 25-25 25s-25-11.191406-25-25 11.191406-25 25-25 25 11.191406 25 25zm0 0" fill="#ffde55"/><path d="m353.089844 38.097656c0-10.25 6.171875-19.054687 15-22.914062-3.0625-1.339844-6.441406-2.085938-10-2.085938-13.808594 0-25 11.191406-25 25s11.191406 25 25 25c3.558594 0 6.9375-.746094 10-2.085937-8.828125-3.859375-15-12.664063-15-22.914063zm0 0" fill="#ffcd00"/><path d="m178.101562 266.203125c0 13.804687-11.195312 25-25 25-13.808593 0-25-11.195313-25-25 0-13.808594 11.191407-25 25-25 13.804688 0 25 11.191406 25 25zm0 0" fill="#c17f8c"/><path d="m148.101562 266.203125c0-10.25 6.171876-19.054687 15-22.914063-3.722656-1.628906-7.910156-2.382812-12.3125-1.980468-12.179687 1.101562-21.90625 11.136718-22.640624 23.34375-.875 14.511718 10.632812 26.550781 24.949218 26.550781 3.558594 0 6.9375-.75 10-2.085937-8.824218-3.859376-14.996094-12.664063-14.996094-22.914063zm0 0" fill="#b25f6f"/></svg>